<svg class="" xmlns="http://www.w3.org/2000/svg" width="25" height="25" viewBox="0 0 24.357 25.465"> <g></g> <path id="Path_125" data-name="Path 125" d="M84.429,64v1.107H80V89.465h24.357V65.107H99.929V64H97.714v1.107H86.643V64Zm-2.214,3.321h2.214v1.107h2.214V67.321H97.714v1.107h2.214V67.321h2.214v2.214H82.214Zm0,4.429h19.929v15.5H82.214Zm6.643,2.214v2.214h2.214V73.964Zm4.429,0v2.214H95.5V73.964Zm4.429,0v2.214h2.214V73.964ZM84.429,78.393v2.214h2.214V78.393Zm4.429,0v2.214h2.214V78.393Zm4.429,0v2.214H95.5V78.393Zm4.429,0v2.214h2.214V78.393ZM84.429,82.822v2.214h2.214V82.822Zm4.429,0v2.214h2.214V82.822Zm4.429,0v2.214H95.5V82.822Z" transform="translate(-80 -64)"></path>  </svg> 